<svg id="Layer_1" data-name="Layer 1" xmlns="http://www.w3.org/2000/svg" xmlns:xlink="http://www.w3.org/1999/xlink" viewBox="0 0 26 18"><defs><style>.cls-1,.cls-2,.cls-3,.cls-6{fill:#4c4545;}.cls-1{clip-rule:evenodd;}.cls-3{fill-rule:evenodd;}.cls-4{clip-path:url(#clip-path);}.cls-5{clip-path:url(#clip-path-2);}.cls-6{opacity:0.7;}.cls-7{clip-path:url(#clip-path-3);}</style><clipPath id="clip-path"><path class="cls-1" d="M1,7.8v-2H15.18v2ZM1,2.89v-2h9.27v2Z"/></clipPath><clipPath id="clip-path-2"><rect class="cls-2" x="-5.27" y="-9.93" width="34.36" height="34.36"/></clipPath><clipPath id="clip-path-3"><polygon class="cls-1" points="1 12.53 21.52 12.53 18.26 15.79 19.55 17.07 25 11.62 19.55 6.16 18.26 7.45 21.52 10.71 1 10.71 1 12.53"/></clipPath></defs><title>icon-expandList</title><path class="cls-3" d="M1,7.8v-2H15.18v2ZM1,2.89v-2h9.27v2Z"/><g class="cls-4"><rect class="cls-2" x="-5.27" y="-9.93" width="34.36" height="34.36"/><g class="cls-5"><rect class="cls-6" x="-3.09" y="-3.16" width="22.36" height="15.05"/></g></g><polygon class="cls-3" points="1 12.53 21.52 12.53 18.26 15.79 19.55 17.07 25 11.62 19.55 6.16 18.26 7.45 21.52 10.71 1 10.71 1 12.53"/><g class="cls-7"><rect class="cls-2" x="-5.27" y="-9.93" width="34.36" height="34.36"/><g class="cls-5"><rect class="cls-6" x="-3.09" y="2.07" width="32.18" height="19.09"/></g></g></svg>