<svg id="Layer_1" data-name="Layer 1" xmlns="http://www.w3.org/2000/svg" xmlns:xlink="http://www.w3.org/1999/xlink" viewBox="0 0 26 18"><defs><style>.cls-1,.cls-2,.cls-3,.cls-6{fill:#4c4545;}.cls-1{clip-rule:evenodd;}.cls-3{fill-rule:evenodd;}.cls-4{clip-path:url(#clip-path);}.cls-5{clip-path:url(#clip-path-2);}.cls-6{opacity:0.7;}.cls-7{clip-path:url(#clip-path-3);}</style><clipPath id="clip-path"><path class="cls-1" d="M25,10.2v2H10.82v-2Zm0,4.91v2H15.73v-2Z"/></clipPath><clipPath id="clip-path-2"><rect class="cls-2" x="-3.09" y="-6.44" width="34.36" height="34.36"/></clipPath><clipPath id="clip-path-3"><polygon class="cls-1" points="25 5.47 4.48 5.47 7.74 2.21 6.46 0.93 1 6.38 6.46 11.84 7.74 10.55 4.48 7.29 25 7.29 25 5.47"/></clipPath></defs><title>icon-collapseList</title><path class="cls-3" d="M25,10.2v2H10.82v-2Zm0,4.91v2H15.73v-2Z"/><g class="cls-4"><rect class="cls-2" x="-3.09" y="-6.44" width="34.36" height="34.36"/><g class="cls-5"><rect class="cls-6" x="6.73" y="6.11" width="22.36" height="15.05"/></g></g><polygon class="cls-3" points="25 5.47 4.48 5.47 7.74 2.21 6.46 0.93 1 6.38 6.46 11.84 7.74 10.55 4.48 7.29 25 7.29 25 5.47"/><g class="cls-7"><rect class="cls-2" x="-3.09" y="-6.44" width="34.36" height="34.36"/><g class="cls-5"><rect class="cls-6" x="-3.09" y="-3.16" width="32.18" height="19.09"/></g></g></svg>